<svg width="183" height="54" viewBox="0 0 183 54" fill="none" xmlns="http://www.w3.org/2000/svg">
<rect x="102" width="81" height="54" rx="15" fill="#FF0000"/>
<path d="M2 41V16.24H6.56L14.4 32.76L22.2 16.24H26.76V41H22.28V25.72L15.76 40.2H13L6.48 25.72V41H2ZM46.9034 32.72H34.9434C35.3434 35.8133 37.0368 37.36 40.0234 37.36C41.6234 37.36 43.1034 36.8 44.4634 35.68L46.7434 38.72C44.8234 40.48 42.4634 41.36 39.6634 41.36C36.7834 41.36 34.5168 40.4667 32.8634 38.68C31.2368 36.8667 30.4234 34.3867 30.4234 31.24C30.4234 28.0133 31.2101 25.44 32.7834 23.52C34.3568 21.6 36.4768 20.64 39.1434 20.64C42.1568 20.64 44.3434 21.8133 45.7034 24.16C46.6101 25.7067 47.0634 27.8 47.0634 30.44C47.0634 31.0267 47.0101 31.7867 46.9034 32.72ZM34.9434 29.12H42.7434C42.7434 27.6533 42.4368 26.56 41.8234 25.84C41.1834 25.04 40.2501 24.64 39.0234 24.64C36.7034 24.64 35.3434 26.1333 34.9434 29.12ZM65.8281 23.52C67.1348 21.6 69.0548 20.64 71.5881 20.64C73.9081 20.64 75.6815 21.3467 76.9081 22.76C78.1615 24.1733 78.7881 26.2133 78.7881 28.88V41H74.3881V29.28C74.3881 27.6533 74.1081 26.48 73.5481 25.76C73.0148 25.04 72.1481 24.68 70.9481 24.68C69.6148 24.68 68.6415 25.1333 68.0281 26.04C67.4148 26.92 67.1081 28.32 67.1081 30.24V41H62.7081V29.28C62.7081 27.68 62.4281 26.52 61.8681 25.8C61.3348 25.0533 60.4548 24.68 59.2281 24.68C57.8948 24.68 56.9081 25.1333 56.2681 26.04C55.6548 26.92 55.3481 28.32 55.3481 30.24V41H50.9481V21H54.8281V23C56.0281 21.4267 57.7215 20.64 59.9081 20.64C62.6281 20.64 64.6015 21.6 65.8281 23.52ZM98.7394 32.72H86.7794C87.1794 35.8133 88.8727 37.36 91.8594 37.36C93.4594 37.36 94.9394 36.8 96.2994 35.68L98.5794 38.72C96.6594 40.48 94.2994 41.36 91.4994 41.36C88.6194 41.36 86.3527 40.4667 84.6994 38.68C83.0727 36.8667 82.2594 34.3867 82.2594 31.24C82.2594 28.0133 83.046 25.44 84.6194 23.52C86.1927 21.6 88.3127 20.64 90.9794 20.64C93.9927 20.64 96.1794 21.8133 97.5394 24.16C98.446 25.7067 98.8994 27.8 98.8994 30.44C98.8994 31.0267 98.846 31.7867 98.7394 32.72ZM86.7794 29.12H94.5794C94.5794 27.6533 94.2727 26.56 93.6594 25.84C93.0194 25.04 92.086 24.64 90.8594 24.64C88.5394 24.64 87.1794 26.1333 86.7794 29.12Z" fill="black"/>
<path d="M117.52 28.68V40H113V15.24H117.52V24.68H127.2V16.84L131.72 14.68V40H127.2V28.68H117.52ZM136.122 20H140.522V31.68C140.522 34.7467 141.762 36.28 144.242 36.28C146.722 36.28 147.962 34.7467 147.962 31.68V20H152.362V31.68C152.362 37.4667 149.642 40.36 144.202 40.36C138.816 40.36 136.122 37.4667 136.122 31.68V20ZM160.923 21.76C161.75 20.9867 162.563 20.44 163.363 20.12C164.19 19.8 165.216 19.64 166.443 19.64C169.03 19.64 171.03 20.5333 172.443 22.32C173.856 24.08 174.563 26.5733 174.563 29.8C174.563 33.1867 173.816 35.8 172.323 37.64C170.856 39.4533 168.75 40.36 166.003 40.36C163.95 40.36 162.11 39.6267 160.483 38.16V40H156.603V12.64H160.923V21.76ZM165.563 36.32C167.136 36.32 168.283 35.8267 169.003 34.84C169.75 33.8533 170.123 32.2933 170.123 30.16C170.123 27.9467 169.75 26.32 169.003 25.28C168.283 24.2133 167.15 23.68 165.603 23.68C162.483 23.68 160.923 25.8133 160.923 30.08C160.923 32.2133 161.296 33.7867 162.043 34.8C162.79 35.8133 163.963 36.32 165.563 36.32Z" fill="#FBF4F4"/>
</svg>
